<?xml version="1.0" encoding="UTF-8" standalone="no"?>
<!-- Created with Inkscape (http://www.inkscape.org/) -->

<svg
   width="256"
   height="64"
   viewBox="0 0 67.733331 16.933333"
   version="1.1"
   id="svg5"
   inkscape:version="1.1.1 (c3084ef, 2021-09-22)"
   sodipodi:docname="msys.svg"
   xmlns:inkscape="http://www.inkscape.org/namespaces/inkscape"
   xmlns:sodipodi="http://sodipodi.sourceforge.net/DTD/sodipodi-0.dtd"
   xmlns="http://www.w3.org/2000/svg"
   xmlns:svg="http://www.w3.org/2000/svg">
  <sodipodi:namedview
     id="namedview7"
     pagecolor="#ffffff"
     bordercolor="#666666"
     borderopacity="1.0"
     inkscape:pageshadow="2"
     inkscape:pageopacity="0.0"
     inkscape:pagecheckerboard="0"
     inkscape:document-units="mm"
     showgrid="false"
     width="64mm"
     units="px"
     inkscape:zoom="1.4153302"
     inkscape:cx="-27.202132"
     inkscape:cy="-16.603899"
     inkscape:window-width="1293"
     inkscape:window-height="810"
     inkscape:window-x="0"
     inkscape:window-y="23"
     inkscape:window-maximized="0"
     inkscape:current-layer="layer1" />
  <defs
     id="defs2" />
  <g
     inkscape:label="Layer 1"
     inkscape:groupmode="layer"
     id="layer1">
    <path
       id="path21917"
       style="fill:#008000;stroke:#000000;stroke-width:0.600001;stroke-miterlimit:4;stroke-dasharray:none"
       d="M 9.7967705,0.54084917 A 7.9572005,7.9572005 0 0 0 2.3930881,5.6371789 L 4.4575615,6.8262535 8.4418144,4.5261356 12.425551,6.8262535 V 11.426489 L 8.4418144,13.726608 4.4575615,11.426489 2.9878839,12.589726 A 7.9572005,7.9572005 0 0 0 9.7967705,16.455123 7.9572005,7.9572005 0 0 0 17.754424,8.4979862 7.9572005,7.9572005 0 0 0 9.7967705,0.54084917 Z"
       inkscape:export-filename="/Users/ahmadroisul/Sites/mecsys/assets/img/msys-favicon.png"
       inkscape:export-xdpi="96"
       inkscape:export-ydpi="96" />
    <text
       xml:space="preserve"
       style="font-style:normal;font-variant:normal;font-weight:normal;font-stretch:normal;font-size:14.27px;line-height:1.25;font-family:Sathu;-inkscape-font-specification:Sathu;fill:#000000;fill-opacity:1;stroke:none;stroke-width:0.35675"
       x="29.231604"
       y="-14.279647"
       id="text1200"
       transform="scale(0.96730248,1.0338028)"><tspan
         sodipodi:role="line"
         id="tspan1198"
         style="font-style:normal;font-variant:normal;font-weight:normal;font-stretch:normal;font-family:Sathu;-inkscape-font-specification:Sathu;stroke-width:0.35675"
         x="29.231604"
         y="-14.279647" /></text>
    <g
       id="g3099"
       inkscape:export-filename="/Users/ahmadroisul/Sites/mmcs/assets/img/mmcs.png"
       inkscape:export-xdpi="96"
       inkscape:export-ydpi="96">
      <path
         id="rect13266"
         style="fill:#008000;stroke-width:1.04193"
         d="m 10.843554,-17.188473 h -23.947893 a 7.1728528,7.1728528 0 0 0 -0.608232,-0.579809 7.1728528,7.1728528 0 0 0 -0.671277,-0.504879 7.1728528,7.1728528 0 0 0 -0.725537,-0.422713 7.1728528,7.1728528 0 0 0 -0.770496,-0.334864 7.1728528,7.1728528 0 0 0 -0.804085,-0.242879 7.1728528,7.1728528 0 0 0 -0.827339,-0.147278 7.1728528,7.1728528 0 0 0 -0.838192,-0.04909 7.1728528,7.1728528 0 0 0 -0.917774,0.05891 7.1728528,7.1728528 0 0 0 -0.902787,0.176216 7.1728528,7.1728528 0 0 0 -0.872815,0.289905 7.1728528,7.1728528 0 0 0 -0.828373,0.398942 7.1728528,7.1728528 0 0 0 -0.770495,0.502295 7.1728528,7.1728528 0 0 0 -0.699699,0.596346 7.1728528,7.1728528 0 0 0 -0.618051,0.681096 7.1728528,7.1728528 0 0 0 -0.525549,0.754476 7.1728528,7.1728528 0 0 0 -0.42478,0.815454 l 2.177645,1.1498 3.520715,-2.031917 3.521232,2.031917 v 4.0664187 l -3.521232,2.0319171 -3.520715,-2.0319171 -1.874821,1.188041 a 7.1728528,7.1728528 0 0 0 0.517798,0.795817 7.1728528,7.1728528 0 0 0 0.618566,0.7208863 7.1728528,7.1728528 0 0 0 0.708485,0.6325196 7.1728528,7.1728528 0 0 0 0.785998,0.5333007 7.1728528,7.1728528 0 0 0 0.84956,0.4247804 7.1728528,7.1728528 0 0 0 0.898137,0.3090248 7.1728528,7.1728528 0 0 0 0.931209,0.1875857 7.1728528,7.1728528 0 0 0 0.947746,0.063045 7.1728528,7.1728528 0 0 0 0.913639,-0.059428 7.1728528,7.1728528 0 0 0 0.898654,-0.1746665 7.1728528,7.1728528 0 0 0 0.869197,-0.2883543 7.1728528,7.1728528 0 0 0 0.825273,-0.3963583 7.1728528,7.1728528 0 0 0 0.767911,-0.4986776 7.1728528,7.1728528 0 0 0 0.698666,-0.5922119 c 0.03664,0.00209 0.07288,0.00517 0.110071,0.00517 h 24.10964 z" />
      <text
         xml:space="preserve"
         style="font-size:9.44111px;line-height:1.25;font-family:'Arial Black';-inkscape-font-specification:'Arial Black, ';stroke-width:0.595804;stroke-miterlimit:4;stroke-dasharray:none"
         x="-8.9951067"
         y="-8.9817457"
         id="text7088"
         transform="scale(1.0221896,0.97829209)"><tspan
           sodipodi:role="line"
           id="tspan7086"
           style="stroke-width:0.595804;stroke-miterlimit:4;stroke-dasharray:none"
           x="-8.9951067"
           y="-8.9817457"><tspan
   style="fill:#ffffff;stroke-width:0.595804;stroke-miterlimit:4;stroke-dasharray:none"
   id="tspan16096">MM </tspan>CS</tspan></text>
      <path
         id="path20886"
         style="fill:none;stroke:#000000;stroke-width:1.13168;stroke-miterlimit:4;stroke-dasharray:none"
         d="m -18.349497,-19.469987 a 7.1728528,7.1728528 0 0 0 -6.560323,4.273641 l 2.177645,1.1498 3.520715,-2.031917 3.521232,2.031917 v 4.066419 l -3.521232,2.031917 -3.520715,-2.031917 -1.874821,1.188041 a 7.1728528,7.1728528 0 0 0 6.257499,3.666959 7.1728528,7.1728528 0 0 0 4.97334,-2.009696 c 0.03664,0.0021 0.07288,0.0052 0.110071,0.0052 h 45.995124 c 1.033634,0 1.866037,-0.831886 1.866037,-1.86552 v -6.327811 c 0,-1.033634 -0.832403,-1.865519 -1.866037,-1.865519 h -45.833377 a 7.1728528,7.1728528 0 0 0 -5.245158,-2.281514 z" />
    </g>
  </g>
</svg>
